<svg id="Layer_1" data-name="Layer 1" xmlns="http://www.w3.org/2000/svg" viewBox="0 0 1751.81 432.58"><defs><style>.cls-1{fill:#f2f8ee;}</style></defs><title>logo</title><path class="cls-1" d="M132.14,1149a114.87,114.87,0,0,1,0-84.49A106.11,106.11,0,0,1,154.08,1031a98.93,98.93,0,0,1,32.37-22.13A101.19,101.19,0,0,1,226.5,1001q22.31,0,39.13,4.57a158.22,158.22,0,0,1,34.74,14.45l-12.06,23.77q-15.74-9.51-29.45-13.35t-32.36-3.84a72.31,72.31,0,0,0-53.76,23,75.51,75.51,0,0,0-15.37,25.24,95.09,95.09,0,0,0,0,63.63,75.31,75.31,0,0,0,15.37,25.24,70.71,70.71,0,0,0,23.58,16.64,74.21,74.21,0,0,0,30.18,6q18.65,0,32.36-3.84t29.45-13.35l12.06,23.78a158.65,158.65,0,0,1-34.74,14.44q-16.83,4.58-39.13,4.58a101.19,101.19,0,0,1-40.05-7.87,100.11,100.11,0,0,1-32.37-21.94A103.85,103.85,0,0,1,132.14,1149Z" transform="translate(-124.09 -783.71)"/><path class="cls-1" d="M342.43,1208.41V902.29h26v306.12Z" transform="translate(-124.09 -783.71)"/><path class="cls-1" d="M1050.47,1005.06h43.16V931.55h26v73.51h84.12v25.24h-84.12v99.11q0,16.1,2.38,26.33t7.5,16.09a29.64,29.64,0,0,0,13.9,8.6q8.78,2.74,21.94,2.74h41v25.24h-38.4a116.6,116.6,0,0,1-29.44-3.48,63.33,63.33,0,0,1-23.59-11.52,51.54,51.54,0,0,1-15.73-21.21q-5.47-13.17-5.48-32.55V1030.3h-43.16Z" transform="translate(-124.09 -783.71)"/><path class="cls-1" d="M1284.9,1006.16q11-1.83,27.25-3.47a303.36,303.36,0,0,1,30.53-1.65,154,154,0,0,1,34.56,3.66,63.11,63.11,0,0,1,27.43,13.53q11.53,9.87,17.56,26.51t6,41.88v121.79h-26V1097.59q0-22.3-4.21-36t-11.7-21.21a41.6,41.6,0,0,0-18.84-10.61,100.11,100.11,0,0,0-26.33-3.11,295.73,295.73,0,0,0-56.32,5.85v175.92h-26V902.29h26Z" transform="translate(-124.09 -783.71)"/><path class="cls-1" d="M1574.92,1186.46q23,0,39.68-5.12a150.3,150.3,0,0,0,33.1-15l12.43,23.77a169.87,169.87,0,0,1-38.22,16.46q-19.2,5.49-47,5.49a101,101,0,0,1-95.27-63.46,109.27,109.27,0,0,1-7.87-41.88q0-23.4,8-42.6a101.67,101.67,0,0,1,95.09-63.09q21.94,0,39.86,7.5a87.53,87.53,0,0,1,30.91,21.57,100.81,100.81,0,0,1,20.29,34q7.32,19.93,7.68,49.19H1499.58q.36,12.06,5.85,26.51a70.21,70.21,0,0,0,15.54,24.69,73.13,73.13,0,0,0,23.78,16.09A76.07,76.07,0,0,0,1574.92,1186.46Zm0-159.82a78.74,78.74,0,0,0-29.08,5.12,65.67,65.67,0,0,0-22.13,14.08,74.36,74.36,0,0,0-15,21.21q-5.85,12.26-7.31,21H1644q-1.1-10.23-6.77-22.49a70.44,70.44,0,0,0-14.63-21,60.15,60.15,0,0,0-21-13.35A75,75,0,0,0,1574.92,1026.64Z" transform="translate(-124.09 -783.71)"/><path class="cls-1" d="M1790,1186.46a151.32,151.32,0,0,0,22.86-1.64,73.83,73.83,0,0,0,18.65-5.12,28.87,28.87,0,0,0,12.25-9.69q4.4-6.23,4.39-16.1a26.76,26.76,0,0,0-11-22.31q-11-8.4-36.57-13.89l-15.36-3.3a221.33,221.33,0,0,1-31.82-9.69q-13.17-5.29-21.58-12.61a42.27,42.27,0,0,1-12.07-16.83,58.56,58.56,0,0,1-3.66-21.21,41.51,41.51,0,0,1,5.86-21.58,53.43,53.43,0,0,1,15.9-16.82,79,79,0,0,1,23.78-10.79,110.15,110.15,0,0,1,29.8-3.84q43.15,0,79,19.38l-11.7,23.78q-17.92-9.89-32.55-13.72t-34.75-3.84q-23.4,0-35.47,7.5t-12.07,20.3q0,13.53,10.24,20.48t36.94,12.43l13.53,2.93a200.81,200.81,0,0,1,32.92,10.06q13.52,5.67,22.3,13.34a42.67,42.67,0,0,1,12.44,17.92,66.13,66.13,0,0,1,3.66,22.31,50.37,50.37,0,0,1-6.22,25.24,52,52,0,0,1-17.74,18.29,87.28,87.28,0,0,1-27.25,11,153.89,153.89,0,0,1-34.74,3.66,164.59,164.59,0,0,1-40.41-4.76,160.67,160.67,0,0,1-38.59-15.73l12.44-24.87a134.1,134.1,0,0,0,34.56,15.18A123.4,123.4,0,0,0,1790,1186.46Z" transform="translate(-124.09 -783.71)"/><path class="cls-1" d="M930.34,1216.29H527a109.74,109.74,0,0,1,0-219.48H930.34a109.74,109.74,0,0,1,0,219.48ZM527,1015.1a91.45,91.45,0,0,0,0,182.9H930.34a91.45,91.45,0,1,0,0-182.9Z" transform="translate(-124.09 -783.71)"/><path class="cls-1" d="M792,857.33a76.44,76.44,0,0,0-152-8.59,10,10,0,0,0,9.87,11.41h0a9.9,9.9,0,0,0,9.83-8.36A56.51,56.51,0,1,1,732,914.23a23.28,23.28,0,0,0-16.37,22.35h0v72.79h17V934.65A76.55,76.55,0,0,0,792,857.33Z" transform="translate(-124.09 -783.71)"/></svg>